<svg xmlns="http://www.w3.org/2000/svg" viewBox="0 0 1280 720" role="img" aria-labelledby="title desc">
  <title id="title">MuJoCo Virtual Rodent locomotion prototype placeholder</title>
  <desc id="desc">Placeholder image for the MuJoCo Virtual Rodent walking prototype video.</desc>
  <defs>
    <linearGradient id="g" x1="0" x2="1" y1="0" y2="1">
      <stop offset="0%" stop-color="#1e1b16"/>
      <stop offset="100%" stop-color="#ffb34a"/>
    </linearGradient>
  </defs>
  <rect width="1280" height="720" fill="url(#g)"/>
  <g opacity="0.25" fill="none" stroke="#fff8ef" stroke-width="8" stroke-linecap="round">
    <path d="M230 420 C310 370 420 370 500 420 C580 470 690 470 770 420 C850 370 960 370 1050 420"/>
    <path d="M300 470 L240 575 M420 470 L480 575 M810 470 L750 575 M930 470 L990 575"/>
    <path d="M500 420 L650 360 L770 420"/>
  </g>
  <circle cx="640" cy="330" r="92" fill="rgba(255,255,255,0.86)"/>
  <path d="M616 280 L616 380 L704 330 Z" fill="#1e1b16"/>
  <text x="640" y="492" text-anchor="middle" font-family="system-ui, -apple-system, Segoe UI, sans-serif" font-size="42" font-weight="800" fill="#fff">MuJoCo Virtual Rodent</text>
  <text x="640" y="545" text-anchor="middle" font-family="system-ui, -apple-system, Segoe UI, sans-serif" font-size="26" fill="#fff8ef">Future-direction walking prototype</text>
  <text x="640" y="590" text-anchor="middle" font-family="system-ui, -apple-system, Segoe UI, sans-serif" font-size="24" fill="#fff8ef">Replace with assets/mujoco-virtual-rodent-gait.mp4</text>
</svg>
