<?xml version="1.0" encoding="utf-8" standalone="no"?>
<!DOCTYPE svg PUBLIC "-//W3C//DTD SVG 1.1//EN"
  "http://www.w3.org/Graphics/SVG/1.1/DTD/svg11.dtd">
<svg xmlns:xlink="http://www.w3.org/1999/xlink" width="566.670938pt" height="292.529844pt" viewBox="0 0 566.670938 292.529844" xmlns="http://www.w3.org/2000/svg" version="1.1">
 <metadata>
  <rdf:RDF xmlns:dc="http://purl.org/dc/elements/1.1/" xmlns:cc="http://creativecommons.org/ns#" xmlns:rdf="http://www.w3.org/1999/02/22-rdf-syntax-ns#">
   <cc:Work>
    <dc:type rdf:resource="http://purl.org/dc/dcmitype/StillImage"/>
    <dc:date>2026-06-22T19:10:10.914547</dc:date>
    <dc:format>image/svg+xml</dc:format>
    <dc:creator>
     <cc:Agent>
      <dc:title>Matplotlib v3.10.8, https://matplotlib.org/</dc:title>
     </cc:Agent>
    </dc:creator>
   </cc:Work>
  </rdf:RDF>
 </metadata>
 <defs>
  <style type="text/css">*{stroke-linejoin: round; stroke-linecap: butt}</style>
 </defs>
 <g id="figure_1">
  <g id="patch_1">
   <path d="M 0 292.529844 
L 566.670938 292.529844 
L 566.670938 0 
L 0 0 
z
" style="fill: #ffffff"/>
  </g>
  <g id="axes_1">
   <g id="patch_2">
    <path d="M 56.840938 253.037969 
L 559.470937 253.037969 
L 559.470937 23.077969 
L 56.840938 23.077969 
z
" style="fill: #ffffff"/>
   </g>
   <g id="matplotlib.axis_1">
    <g id="xtick_1">
     <g id="line2d_1">
      <defs>
       <path id="m8e7a265249" d="M 0 0 
L 0 3.5 
" style="stroke: #000000; stroke-width: 0.8"/>
      </defs>
      <g>
       <use xlink:href="#m8e7a265249" x="79.687756" y="253.037969" style="stroke: #000000; stroke-width: 0.8"/>
      </g>
     </g>
     <g id="text_1">
      <!-- 0 -->
      <g transform="translate(76.188381 268.39625) scale(0.11 -0.11)">
       <defs>
        <path id="DejaVuSans-30" d="M 2034 4250 
Q 1547 4250 1301 3770 
Q 1056 3291 1056 2328 
Q 1056 1369 1301 889 
Q 1547 409 2034 409 
Q 2525 409 2770 889 
Q 3016 1369 3016 2328 
Q 3016 3291 2770 3770 
Q 2525 4250 2034 4250 
z
M 2034 4750 
Q 2819 4750 3233 4129 
Q 3647 3509 3647 2328 
Q 3647 1150 3233 529 
Q 2819 -91 2034 -91 
Q 1250 -91 836 529 
Q 422 1150 422 2328 
Q 422 3509 836 4129 
Q 1250 4750 2034 4750 
z
" transform="scale(0.015625)"/>
       </defs>
       <use xlink:href="#DejaVuSans-30"/>
      </g>
     </g>
    </g>
    <g id="xtick_2">
     <g id="line2d_2">
      <g>
       <use xlink:href="#m8e7a265249" x="171.075028" y="253.037969" style="stroke: #000000; stroke-width: 0.8"/>
      </g>
     </g>
     <g id="text_2">
      <!-- 2 -->
      <g transform="translate(167.575653 268.39625) scale(0.11 -0.11)">
       <defs>
        <path id="DejaVuSans-32" d="M 1228 531 
L 3431 531 
L 3431 0 
L 469 0 
L 469 531 
Q 828 903 1448 1529 
Q 2069 2156 2228 2338 
Q 2531 2678 2651 2914 
Q 2772 3150 2772 3378 
Q 2772 3750 2511 3984 
Q 2250 4219 1831 4219 
Q 1534 4219 1204 4116 
Q 875 4013 500 3803 
L 500 4441 
Q 881 4594 1212 4672 
Q 1544 4750 1819 4750 
Q 2544 4750 2975 4387 
Q 3406 4025 3406 3419 
Q 3406 3131 3298 2873 
Q 3191 2616 2906 2266 
Q 2828 2175 2409 1742 
Q 1991 1309 1228 531 
z
" transform="scale(0.015625)"/>
       </defs>
       <use xlink:href="#DejaVuSans-32"/>
      </g>
     </g>
    </g>
    <g id="xtick_3">
     <g id="line2d_3">
      <g>
       <use xlink:href="#m8e7a265249" x="262.462301" y="253.037969" style="stroke: #000000; stroke-width: 0.8"/>
      </g>
     </g>
     <g id="text_3">
      <!-- 4 -->
      <g transform="translate(258.962926 268.39625) scale(0.11 -0.11)">
       <defs>
        <path id="DejaVuSans-34" d="M 2419 4116 
L 825 1625 
L 2419 1625 
L 2419 4116 
z
M 2253 4666 
L 3047 4666 
L 3047 1625 
L 3713 1625 
L 3713 1100 
L 3047 1100 
L 3047 0 
L 2419 0 
L 2419 1100 
L 313 1100 
L 313 1709 
L 2253 4666 
z
" transform="scale(0.015625)"/>
       </defs>
       <use xlink:href="#DejaVuSans-34"/>
      </g>
     </g>
    </g>
    <g id="xtick_4">
     <g id="line2d_4">
      <g>
       <use xlink:href="#m8e7a265249" x="353.849574" y="253.037969" style="stroke: #000000; stroke-width: 0.8"/>
      </g>
     </g>
     <g id="text_4">
      <!-- 6 -->
      <g transform="translate(350.350199 268.39625) scale(0.11 -0.11)">
       <defs>
        <path id="DejaVuSans-36" d="M 2113 2584 
Q 1688 2584 1439 2293 
Q 1191 2003 1191 1497 
Q 1191 994 1439 701 
Q 1688 409 2113 409 
Q 2538 409 2786 701 
Q 3034 994 3034 1497 
Q 3034 2003 2786 2293 
Q 2538 2584 2113 2584 
z
M 3366 4563 
L 3366 3988 
Q 3128 4100 2886 4159 
Q 2644 4219 2406 4219 
Q 1781 4219 1451 3797 
Q 1122 3375 1075 2522 
Q 1259 2794 1537 2939 
Q 1816 3084 2150 3084 
Q 2853 3084 3261 2657 
Q 3669 2231 3669 1497 
Q 3669 778 3244 343 
Q 2819 -91 2113 -91 
Q 1303 -91 875 529 
Q 447 1150 447 2328 
Q 447 3434 972 4092 
Q 1497 4750 2381 4750 
Q 2619 4750 2861 4703 
Q 3103 4656 3366 4563 
z
" transform="scale(0.015625)"/>
       </defs>
       <use xlink:href="#DejaVuSans-36"/>
      </g>
     </g>
    </g>
    <g id="xtick_5">
     <g id="line2d_5">
      <g>
       <use xlink:href="#m8e7a265249" x="445.236847" y="253.037969" style="stroke: #000000; stroke-width: 0.8"/>
      </g>
     </g>
     <g id="text_5">
      <!-- 8 -->
      <g transform="translate(441.737472 268.39625) scale(0.11 -0.11)">
       <defs>
        <path id="DejaVuSans-38" d="M 2034 2216 
Q 1584 2216 1326 1975 
Q 1069 1734 1069 1313 
Q 1069 891 1326 650 
Q 1584 409 2034 409 
Q 2484 409 2743 651 
Q 3003 894 3003 1313 
Q 3003 1734 2745 1975 
Q 2488 2216 2034 2216 
z
M 1403 2484 
Q 997 2584 770 2862 
Q 544 3141 544 3541 
Q 544 4100 942 4425 
Q 1341 4750 2034 4750 
Q 2731 4750 3128 4425 
Q 3525 4100 3525 3541 
Q 3525 3141 3298 2862 
Q 3072 2584 2669 2484 
Q 3125 2378 3379 2068 
Q 3634 1759 3634 1313 
Q 3634 634 3220 271 
Q 2806 -91 2034 -91 
Q 1263 -91 848 271 
Q 434 634 434 1313 
Q 434 1759 690 2068 
Q 947 2378 1403 2484 
z
M 1172 3481 
Q 1172 3119 1398 2916 
Q 1625 2713 2034 2713 
Q 2441 2713 2670 2916 
Q 2900 3119 2900 3481 
Q 2900 3844 2670 4047 
Q 2441 4250 2034 4250 
Q 1625 4250 1398 4047 
Q 1172 3844 1172 3481 
z
" transform="scale(0.015625)"/>
       </defs>
       <use xlink:href="#DejaVuSans-38"/>
      </g>
     </g>
    </g>
    <g id="xtick_6">
     <g id="line2d_6">
      <g>
       <use xlink:href="#m8e7a265249" x="536.624119" y="253.037969" style="stroke: #000000; stroke-width: 0.8"/>
      </g>
     </g>
     <g id="text_6">
      <!-- 10 -->
      <g transform="translate(529.625369 268.39625) scale(0.11 -0.11)">
       <defs>
        <path id="DejaVuSans-31" d="M 794 531 
L 1825 531 
L 1825 4091 
L 703 3866 
L 703 4441 
L 1819 4666 
L 2450 4666 
L 2450 531 
L 3481 531 
L 3481 0 
L 794 0 
L 794 531 
z
" transform="scale(0.015625)"/>
       </defs>
       <use xlink:href="#DejaVuSans-31"/>
       <use xlink:href="#DejaVuSans-30" transform="translate(63.623047 0)"/>
      </g>
     </g>
    </g>
    <g id="text_7">
     <!-- Simulated time (s) -->
     <g transform="translate(257.284375 283.042187) scale(0.11 -0.11)">
      <defs>
       <path id="DejaVuSans-53" d="M 3425 4513 
L 3425 3897 
Q 3066 4069 2747 4153 
Q 2428 4238 2131 4238 
Q 1616 4238 1336 4038 
Q 1056 3838 1056 3469 
Q 1056 3159 1242 3001 
Q 1428 2844 1947 2747 
L 2328 2669 
Q 3034 2534 3370 2195 
Q 3706 1856 3706 1288 
Q 3706 609 3251 259 
Q 2797 -91 1919 -91 
Q 1588 -91 1214 -16 
Q 841 59 441 206 
L 441 856 
Q 825 641 1194 531 
Q 1563 422 1919 422 
Q 2459 422 2753 634 
Q 3047 847 3047 1241 
Q 3047 1584 2836 1778 
Q 2625 1972 2144 2069 
L 1759 2144 
Q 1053 2284 737 2584 
Q 422 2884 422 3419 
Q 422 4038 858 4394 
Q 1294 4750 2059 4750 
Q 2388 4750 2728 4690 
Q 3069 4631 3425 4513 
z
" transform="scale(0.015625)"/>
       <path id="DejaVuSans-69" d="M 603 3500 
L 1178 3500 
L 1178 0 
L 603 0 
L 603 3500 
z
M 603 4863 
L 1178 4863 
L 1178 4134 
L 603 4134 
L 603 4863 
z
" transform="scale(0.015625)"/>
       <path id="DejaVuSans-6d" d="M 3328 2828 
Q 3544 3216 3844 3400 
Q 4144 3584 4550 3584 
Q 5097 3584 5394 3201 
Q 5691 2819 5691 2113 
L 5691 0 
L 5113 0 
L 5113 2094 
Q 5113 2597 4934 2840 
Q 4756 3084 4391 3084 
Q 3944 3084 3684 2787 
Q 3425 2491 3425 1978 
L 3425 0 
L 2847 0 
L 2847 2094 
Q 2847 2600 2669 2842 
Q 2491 3084 2119 3084 
Q 1678 3084 1418 2786 
Q 1159 2488 1159 1978 
L 1159 0 
L 581 0 
L 581 3500 
L 1159 3500 
L 1159 2956 
Q 1356 3278 1631 3431 
Q 1906 3584 2284 3584 
Q 2666 3584 2933 3390 
Q 3200 3197 3328 2828 
z
" transform="scale(0.015625)"/>
       <path id="DejaVuSans-75" d="M 544 1381 
L 544 3500 
L 1119 3500 
L 1119 1403 
Q 1119 906 1312 657 
Q 1506 409 1894 409 
Q 2359 409 2629 706 
Q 2900 1003 2900 1516 
L 2900 3500 
L 3475 3500 
L 3475 0 
L 2900 0 
L 2900 538 
Q 2691 219 2414 64 
Q 2138 -91 1772 -91 
Q 1169 -91 856 284 
Q 544 659 544 1381 
z
M 1991 3584 
L 1991 3584 
z
" transform="scale(0.015625)"/>
       <path id="DejaVuSans-6c" d="M 603 4863 
L 1178 4863 
L 1178 0 
L 603 0 
L 603 4863 
z
" transform="scale(0.015625)"/>
       <path id="DejaVuSans-61" d="M 2194 1759 
Q 1497 1759 1228 1600 
Q 959 1441 959 1056 
Q 959 750 1161 570 
Q 1363 391 1709 391 
Q 2188 391 2477 730 
Q 2766 1069 2766 1631 
L 2766 1759 
L 2194 1759 
z
M 3341 1997 
L 3341 0 
L 2766 0 
L 2766 531 
Q 2569 213 2275 61 
Q 1981 -91 1556 -91 
Q 1019 -91 701 211 
Q 384 513 384 1019 
Q 384 1609 779 1909 
Q 1175 2209 1959 2209 
L 2766 2209 
L 2766 2266 
Q 2766 2663 2505 2880 
Q 2244 3097 1772 3097 
Q 1472 3097 1187 3025 
Q 903 2953 641 2809 
L 641 3341 
Q 956 3463 1253 3523 
Q 1550 3584 1831 3584 
Q 2591 3584 2966 3190 
Q 3341 2797 3341 1997 
z
" transform="scale(0.015625)"/>
       <path id="DejaVuSans-74" d="M 1172 4494 
L 1172 3500 
L 2356 3500 
L 2356 3053 
L 1172 3053 
L 1172 1153 
Q 1172 725 1289 603 
Q 1406 481 1766 481 
L 2356 481 
L 2356 0 
L 1766 0 
Q 1100 0 847 248 
Q 594 497 594 1153 
L 594 3053 
L 172 3053 
L 172 3500 
L 594 3500 
L 594 4494 
L 1172 4494 
z
" transform="scale(0.015625)"/>
       <path id="DejaVuSans-65" d="M 3597 1894 
L 3597 1613 
L 953 1613 
Q 991 1019 1311 708 
Q 1631 397 2203 397 
Q 2534 397 2845 478 
Q 3156 559 3463 722 
L 3463 178 
Q 3153 47 2828 -22 
Q 2503 -91 2169 -91 
Q 1331 -91 842 396 
Q 353 884 353 1716 
Q 353 2575 817 3079 
Q 1281 3584 2069 3584 
Q 2775 3584 3186 3129 
Q 3597 2675 3597 1894 
z
M 3022 2063 
Q 3016 2534 2758 2815 
Q 2500 3097 2075 3097 
Q 1594 3097 1305 2825 
Q 1016 2553 972 2059 
L 3022 2063 
z
" transform="scale(0.015625)"/>
       <path id="DejaVuSans-64" d="M 2906 2969 
L 2906 4863 
L 3481 4863 
L 3481 0 
L 2906 0 
L 2906 525 
Q 2725 213 2448 61 
Q 2172 -91 1784 -91 
Q 1150 -91 751 415 
Q 353 922 353 1747 
Q 353 2572 751 3078 
Q 1150 3584 1784 3584 
Q 2172 3584 2448 3432 
Q 2725 3281 2906 2969 
z
M 947 1747 
Q 947 1113 1208 752 
Q 1469 391 1925 391 
Q 2381 391 2643 752 
Q 2906 1113 2906 1747 
Q 2906 2381 2643 2742 
Q 2381 3103 1925 3103 
Q 1469 3103 1208 2742 
Q 947 2381 947 1747 
z
" transform="scale(0.015625)"/>
       <path id="DejaVuSans-20" transform="scale(0.015625)"/>
       <path id="DejaVuSans-28" d="M 1984 4856 
Q 1566 4138 1362 3434 
Q 1159 2731 1159 2009 
Q 1159 1288 1364 580 
Q 1569 -128 1984 -844 
L 1484 -844 
Q 1016 -109 783 600 
Q 550 1309 550 2009 
Q 550 2706 781 3412 
Q 1013 4119 1484 4856 
L 1984 4856 
z
" transform="scale(0.015625)"/>
       <path id="DejaVuSans-73" d="M 2834 3397 
L 2834 2853 
Q 2591 2978 2328 3040 
Q 2066 3103 1784 3103 
Q 1356 3103 1142 2972 
Q 928 2841 928 2578 
Q 928 2378 1081 2264 
Q 1234 2150 1697 2047 
L 1894 2003 
Q 2506 1872 2764 1633 
Q 3022 1394 3022 966 
Q 3022 478 2636 193 
Q 2250 -91 1575 -91 
Q 1294 -91 989 -36 
Q 684 19 347 128 
L 347 722 
Q 666 556 975 473 
Q 1284 391 1588 391 
Q 1994 391 2212 530 
Q 2431 669 2431 922 
Q 2431 1156 2273 1281 
Q 2116 1406 1581 1522 
L 1381 1569 
Q 847 1681 609 1914 
Q 372 2147 372 2553 
Q 372 3047 722 3315 
Q 1072 3584 1716 3584 
Q 2034 3584 2315 3537 
Q 2597 3491 2834 3397 
z
" transform="scale(0.015625)"/>
       <path id="DejaVuSans-29" d="M 513 4856 
L 1013 4856 
Q 1481 4119 1714 3412 
Q 1947 2706 1947 2009 
Q 1947 1309 1714 600 
Q 1481 -109 1013 -844 
L 513 -844 
Q 928 -128 1133 580 
Q 1338 1288 1338 2009 
Q 1338 2731 1133 3434 
Q 928 4138 513 4856 
z
" transform="scale(0.015625)"/>
      </defs>
      <use xlink:href="#DejaVuSans-53"/>
      <use xlink:href="#DejaVuSans-69" transform="translate(63.476562 0)"/>
      <use xlink:href="#DejaVuSans-6d" transform="translate(91.259766 0)"/>
      <use xlink:href="#DejaVuSans-75" transform="translate(188.671875 0)"/>
      <use xlink:href="#DejaVuSans-6c" transform="translate(252.050781 0)"/>
      <use xlink:href="#DejaVuSans-61" transform="translate(279.833984 0)"/>
      <use xlink:href="#DejaVuSans-74" transform="translate(341.113281 0)"/>
      <use xlink:href="#DejaVuSans-65" transform="translate(380.322266 0)"/>
      <use xlink:href="#DejaVuSans-64" transform="translate(441.845703 0)"/>
      <use xlink:href="#DejaVuSans-20" transform="translate(505.322266 0)"/>
      <use xlink:href="#DejaVuSans-74" transform="translate(537.109375 0)"/>
      <use xlink:href="#DejaVuSans-69" transform="translate(576.318359 0)"/>
      <use xlink:href="#DejaVuSans-6d" transform="translate(604.101562 0)"/>
      <use xlink:href="#DejaVuSans-65" transform="translate(701.513672 0)"/>
      <use xlink:href="#DejaVuSans-20" transform="translate(763.037109 0)"/>
      <use xlink:href="#DejaVuSans-28" transform="translate(794.824219 0)"/>
      <use xlink:href="#DejaVuSans-73" transform="translate(833.837891 0)"/>
      <use xlink:href="#DejaVuSans-29" transform="translate(885.9375 0)"/>
     </g>
    </g>
   </g>
   <g id="matplotlib.axis_2">
    <g id="ytick_1">
     <g id="line2d_7">
      <defs>
       <path id="m679df766de" d="M 0 0 
L -3.5 0 
" style="stroke: #000000; stroke-width: 0.8"/>
      </defs>
      <g>
       <use xlink:href="#m679df766de" x="56.840938" y="243.912151" style="stroke: #000000; stroke-width: 0.8"/>
      </g>
     </g>
     <g id="text_8">
      <!-- 0 -->
      <g transform="translate(42.842188 248.091291) scale(0.11 -0.11)">
       <use xlink:href="#DejaVuSans-30"/>
      </g>
     </g>
    </g>
    <g id="ytick_2">
     <g id="line2d_8">
      <g>
       <use xlink:href="#m679df766de" x="56.840938" y="210.739421" style="stroke: #000000; stroke-width: 0.8"/>
      </g>
     </g>
     <g id="text_9">
      <!-- 500 -->
      <g transform="translate(28.844688 214.918561) scale(0.11 -0.11)">
       <defs>
        <path id="DejaVuSans-35" d="M 691 4666 
L 3169 4666 
L 3169 4134 
L 1269 4134 
L 1269 2991 
Q 1406 3038 1543 3061 
Q 1681 3084 1819 3084 
Q 2600 3084 3056 2656 
Q 3513 2228 3513 1497 
Q 3513 744 3044 326 
Q 2575 -91 1722 -91 
Q 1428 -91 1123 -41 
Q 819 9 494 109 
L 494 744 
Q 775 591 1075 516 
Q 1375 441 1709 441 
Q 2250 441 2565 725 
Q 2881 1009 2881 1497 
Q 2881 1984 2565 2268 
Q 2250 2553 1709 2553 
Q 1456 2553 1204 2497 
Q 953 2441 691 2322 
L 691 4666 
z
" transform="scale(0.015625)"/>
       </defs>
       <use xlink:href="#DejaVuSans-35"/>
       <use xlink:href="#DejaVuSans-30" transform="translate(63.623047 0)"/>
       <use xlink:href="#DejaVuSans-30" transform="translate(127.246094 0)"/>
      </g>
     </g>
    </g>
    <g id="ytick_3">
     <g id="line2d_9">
      <g>
       <use xlink:href="#m679df766de" x="56.840938" y="177.56669" style="stroke: #000000; stroke-width: 0.8"/>
      </g>
     </g>
     <g id="text_10">
      <!-- 1000 -->
      <g transform="translate(21.845938 181.745831) scale(0.11 -0.11)">
       <use xlink:href="#DejaVuSans-31"/>
       <use xlink:href="#DejaVuSans-30" transform="translate(63.623047 0)"/>
       <use xlink:href="#DejaVuSans-30" transform="translate(127.246094 0)"/>
       <use xlink:href="#DejaVuSans-30" transform="translate(190.869141 0)"/>
      </g>
     </g>
    </g>
    <g id="ytick_4">
     <g id="line2d_10">
      <g>
       <use xlink:href="#m679df766de" x="56.840938" y="144.39396" style="stroke: #000000; stroke-width: 0.8"/>
      </g>
     </g>
     <g id="text_11">
      <!-- 1500 -->
      <g transform="translate(21.845938 148.573101) scale(0.11 -0.11)">
       <use xlink:href="#DejaVuSans-31"/>
       <use xlink:href="#DejaVuSans-35" transform="translate(63.623047 0)"/>
       <use xlink:href="#DejaVuSans-30" transform="translate(127.246094 0)"/>
       <use xlink:href="#DejaVuSans-30" transform="translate(190.869141 0)"/>
      </g>
     </g>
    </g>
    <g id="ytick_5">
     <g id="line2d_11">
      <g>
       <use xlink:href="#m679df766de" x="56.840938" y="111.22123" style="stroke: #000000; stroke-width: 0.8"/>
      </g>
     </g>
     <g id="text_12">
      <!-- 2000 -->
      <g transform="translate(21.845938 115.400371) scale(0.11 -0.11)">
       <use xlink:href="#DejaVuSans-32"/>
       <use xlink:href="#DejaVuSans-30" transform="translate(63.623047 0)"/>
       <use xlink:href="#DejaVuSans-30" transform="translate(127.246094 0)"/>
       <use xlink:href="#DejaVuSans-30" transform="translate(190.869141 0)"/>
      </g>
     </g>
    </g>
    <g id="ytick_6">
     <g id="line2d_12">
      <g>
       <use xlink:href="#m679df766de" x="56.840938" y="78.0485" style="stroke: #000000; stroke-width: 0.8"/>
      </g>
     </g>
     <g id="text_13">
      <!-- 2500 -->
      <g transform="translate(21.845938 82.227641) scale(0.11 -0.11)">
       <use xlink:href="#DejaVuSans-32"/>
       <use xlink:href="#DejaVuSans-35" transform="translate(63.623047 0)"/>
       <use xlink:href="#DejaVuSans-30" transform="translate(127.246094 0)"/>
       <use xlink:href="#DejaVuSans-30" transform="translate(190.869141 0)"/>
      </g>
     </g>
    </g>
    <g id="ytick_7">
     <g id="line2d_13">
      <g>
       <use xlink:href="#m679df766de" x="56.840938" y="44.87577" style="stroke: #000000; stroke-width: 0.8"/>
      </g>
     </g>
     <g id="text_14">
      <!-- 3000 -->
      <g transform="translate(21.845938 49.05491) scale(0.11 -0.11)">
       <defs>
        <path id="DejaVuSans-33" d="M 2597 2516 
Q 3050 2419 3304 2112 
Q 3559 1806 3559 1356 
Q 3559 666 3084 287 
Q 2609 -91 1734 -91 
Q 1441 -91 1130 -33 
Q 819 25 488 141 
L 488 750 
Q 750 597 1062 519 
Q 1375 441 1716 441 
Q 2309 441 2620 675 
Q 2931 909 2931 1356 
Q 2931 1769 2642 2001 
Q 2353 2234 1838 2234 
L 1294 2234 
L 1294 2753 
L 1863 2753 
Q 2328 2753 2575 2939 
Q 2822 3125 2822 3475 
Q 2822 3834 2567 4026 
Q 2313 4219 1838 4219 
Q 1578 4219 1281 4162 
Q 984 4106 628 3988 
L 628 4550 
Q 988 4650 1302 4700 
Q 1616 4750 1894 4750 
Q 2613 4750 3031 4423 
Q 3450 4097 3450 3541 
Q 3450 3153 3228 2886 
Q 3006 2619 2597 2516 
z
" transform="scale(0.015625)"/>
       </defs>
       <use xlink:href="#DejaVuSans-33"/>
       <use xlink:href="#DejaVuSans-30" transform="translate(63.623047 0)"/>
       <use xlink:href="#DejaVuSans-30" transform="translate(127.246094 0)"/>
       <use xlink:href="#DejaVuSans-30" transform="translate(190.869141 0)"/>
      </g>
     </g>
    </g>
    <g id="text_15">
     <!-- Spikes per 50 ms window -->
     <g transform="translate(15.558281 208.020547) rotate(-90) scale(0.11 -0.11)">
      <defs>
       <path id="DejaVuSans-70" d="M 1159 525 
L 1159 -1331 
L 581 -1331 
L 581 3500 
L 1159 3500 
L 1159 2969 
Q 1341 3281 1617 3432 
Q 1894 3584 2278 3584 
Q 2916 3584 3314 3078 
Q 3713 2572 3713 1747 
Q 3713 922 3314 415 
Q 2916 -91 2278 -91 
Q 1894 -91 1617 61 
Q 1341 213 1159 525 
z
M 3116 1747 
Q 3116 2381 2855 2742 
Q 2594 3103 2138 3103 
Q 1681 3103 1420 2742 
Q 1159 2381 1159 1747 
Q 1159 1113 1420 752 
Q 1681 391 2138 391 
Q 2594 391 2855 752 
Q 3116 1113 3116 1747 
z
" transform="scale(0.015625)"/>
       <path id="DejaVuSans-6b" d="M 581 4863 
L 1159 4863 
L 1159 1991 
L 2875 3500 
L 3609 3500 
L 1753 1863 
L 3688 0 
L 2938 0 
L 1159 1709 
L 1159 0 
L 581 0 
L 581 4863 
z
" transform="scale(0.015625)"/>
       <path id="DejaVuSans-72" d="M 2631 2963 
Q 2534 3019 2420 3045 
Q 2306 3072 2169 3072 
Q 1681 3072 1420 2755 
Q 1159 2438 1159 1844 
L 1159 0 
L 581 0 
L 581 3500 
L 1159 3500 
L 1159 2956 
Q 1341 3275 1631 3429 
Q 1922 3584 2338 3584 
Q 2397 3584 2469 3576 
Q 2541 3569 2628 3553 
L 2631 2963 
z
" transform="scale(0.015625)"/>
       <path id="DejaVuSans-77" d="M 269 3500 
L 844 3500 
L 1563 769 
L 2278 3500 
L 2956 3500 
L 3675 769 
L 4391 3500 
L 4966 3500 
L 4050 0 
L 3372 0 
L 2619 2869 
L 1863 0 
L 1184 0 
L 269 3500 
z
" transform="scale(0.015625)"/>
       <path id="DejaVuSans-6e" d="M 3513 2113 
L 3513 0 
L 2938 0 
L 2938 2094 
Q 2938 2591 2744 2837 
Q 2550 3084 2163 3084 
Q 1697 3084 1428 2787 
Q 1159 2491 1159 1978 
L 1159 0 
L 581 0 
L 581 3500 
L 1159 3500 
L 1159 2956 
Q 1366 3272 1645 3428 
Q 1925 3584 2291 3584 
Q 2894 3584 3203 3211 
Q 3513 2838 3513 2113 
z
" transform="scale(0.015625)"/>
       <path id="DejaVuSans-6f" d="M 1959 3097 
Q 1497 3097 1228 2736 
Q 959 2375 959 1747 
Q 959 1119 1226 758 
Q 1494 397 1959 397 
Q 2419 397 2687 759 
Q 2956 1122 2956 1747 
Q 2956 2369 2687 2733 
Q 2419 3097 1959 3097 
z
M 1959 3584 
Q 2709 3584 3137 3096 
Q 3566 2609 3566 1747 
Q 3566 888 3137 398 
Q 2709 -91 1959 -91 
Q 1206 -91 779 398 
Q 353 888 353 1747 
Q 353 2609 779 3096 
Q 1206 3584 1959 3584 
z
" transform="scale(0.015625)"/>
      </defs>
      <use xlink:href="#DejaVuSans-53"/>
      <use xlink:href="#DejaVuSans-70" transform="translate(63.476562 0)"/>
      <use xlink:href="#DejaVuSans-69" transform="translate(126.953125 0)"/>
      <use xlink:href="#DejaVuSans-6b" transform="translate(154.736328 0)"/>
      <use xlink:href="#DejaVuSans-65" transform="translate(209.021484 0)"/>
      <use xlink:href="#DejaVuSans-73" transform="translate(270.544922 0)"/>
      <use xlink:href="#DejaVuSans-20" transform="translate(322.644531 0)"/>
      <use xlink:href="#DejaVuSans-70" transform="translate(354.431641 0)"/>
      <use xlink:href="#DejaVuSans-65" transform="translate(417.908203 0)"/>
      <use xlink:href="#DejaVuSans-72" transform="translate(479.431641 0)"/>
      <use xlink:href="#DejaVuSans-20" transform="translate(520.544922 0)"/>
      <use xlink:href="#DejaVuSans-35" transform="translate(552.332031 0)"/>
      <use xlink:href="#DejaVuSans-30" transform="translate(615.955078 0)"/>
      <use xlink:href="#DejaVuSans-20" transform="translate(679.578125 0)"/>
      <use xlink:href="#DejaVuSans-6d" transform="translate(711.365234 0)"/>
      <use xlink:href="#DejaVuSans-73" transform="translate(808.777344 0)"/>
      <use xlink:href="#DejaVuSans-20" transform="translate(860.876953 0)"/>
      <use xlink:href="#DejaVuSans-77" transform="translate(892.664062 0)"/>
      <use xlink:href="#DejaVuSans-69" transform="translate(974.451172 0)"/>
      <use xlink:href="#DejaVuSans-6e" transform="translate(1002.234375 0)"/>
      <use xlink:href="#DejaVuSans-64" transform="translate(1065.613281 0)"/>
      <use xlink:href="#DejaVuSans-6f" transform="translate(1129.089844 0)"/>
      <use xlink:href="#DejaVuSans-77" transform="translate(1190.271484 0)"/>
     </g>
    </g>
   </g>
   <g id="line2d_14">
    <path d="M 79.687756 242.585241 
L 81.972438 240.661223 
L 84.257119 240.99295 
L 86.541801 240.86026 
L 88.826483 241.324678 
L 93.395847 240.99295 
L 95.680528 240.86026 
L 97.96521 241.324678 
L 100.249892 240.99295 
L 102.534574 241.191987 
L 104.819256 240.86026 
L 107.103938 194.882856 
L 109.388619 69.489936 
L 111.673301 65.177481 
L 113.957983 93.706029 
L 116.242665 83.687864 
L 118.527347 129.134504 
L 120.812028 124.822049 
L 123.09671 122.168231 
L 125.381392 134.508487 
L 127.666074 140.811305 
L 129.950756 138.290178 
L 132.235438 143.133396 
L 134.520119 149.303524 
L 136.804801 152.554452 
L 139.089483 155.075579 
L 141.374165 148.507379 
L 143.658847 146.052597 
L 145.943528 145.588178 
L 148.22821 141.740142 
L 150.512892 201.119329 
L 152.797574 240.064114 
L 155.082256 240.395841 
L 157.366938 240.196805 
L 161.936301 240.26315 
L 164.220983 240.329496 
L 166.505665 240.130459 
L 168.790347 240.26315 
L 171.075028 240.064114 
L 175.644392 240.26315 
L 180.213756 240.064114 
L 182.498438 240.196805 
L 184.783119 240.528532 
L 187.067801 240.196805 
L 189.352483 239.997769 
L 191.637165 220.69124 
L 193.921847 117.457703 
L 196.206528 63.187117 
L 198.49121 75.1293 
L 200.775892 95.829083 
L 203.060574 130.992177 
L 205.345256 122.499958 
L 207.629938 112.349103 
L 209.914619 133.57965 
L 212.199301 141.342069 
L 214.483983 143.929542 
L 216.768665 141.408414 
L 219.053347 152.952525 
L 221.338028 154.942888 
L 223.62271 159.985143 
L 225.907392 149.701597 
L 228.192074 146.649706 
L 230.476756 144.792033 
L 232.761437 145.787215 
L 235.046119 147.18047 
L 237.330801 240.727569 
L 239.615483 240.196805 
L 241.900165 239.931423 
L 244.184847 240.26315 
L 248.75421 240.196805 
L 251.038892 240.395841 
L 253.323574 239.997769 
L 255.608256 240.395841 
L 257.892938 240.064114 
L 260.177619 240.462187 
L 262.462301 240.064114 
L 264.746983 239.997769 
L 267.031665 240.528532 
L 271.601028 240.064114 
L 273.88571 240.064114 
L 276.170392 239.931423 
L 278.455074 191.830964 
L 280.739756 40.032551 
L 283.024438 77.517736 
L 285.309119 106.444357 
L 287.593801 95.29832 
L 289.878483 135.437323 
L 292.163165 119.647104 
L 294.447847 127.940286 
L 299.01721 140.280542 
L 301.301892 141.939178 
L 303.586574 150.166015 
L 305.871256 149.303524 
L 308.155937 160.18418 
L 310.440619 147.047779 
L 312.725301 144.526651 
L 315.009983 148.241997 
L 317.294665 143.067051 
L 319.579347 142.93436 
L 321.864028 199.460692 
L 324.14871 239.997769 
L 326.433392 240.528532 
L 328.718074 240.064114 
L 331.002756 240.395841 
L 333.287438 239.997769 
L 337.856801 240.594878 
L 340.141483 239.931423 
L 342.426165 240.196805 
L 344.710847 240.130459 
L 346.995528 240.26315 
L 351.564892 240.329496 
L 353.849574 239.931423 
L 356.134256 240.462187 
L 358.418938 239.931423 
L 360.703619 240.528532 
L 362.988301 226.197913 
L 365.272983 118.983649 
L 367.557665 69.622626 
L 369.842347 64.248644 
L 372.127028 97.421374 
L 374.41171 123.428795 
L 376.696392 129.001813 
L 378.981074 126.746068 
L 381.265756 122.367267 
L 383.550438 141.673796 
L 385.835119 143.531469 
L 388.119801 144.128578 
L 390.404483 159.255343 
L 392.689165 148.839106 
L 394.973847 150.033324 
L 397.258528 146.649706 
L 399.54321 144.592997 
L 401.827892 144.062233 
L 406.397256 144.062233 
L 408.681938 240.661223 
L 410.966619 240.196805 
L 413.251301 239.997769 
L 415.535983 240.130459 
L 417.820665 240.594878 
L 422.390028 239.732387 
L 424.67471 240.661223 
L 426.959392 240.130459 
L 429.244074 240.196805 
L 431.528756 240.130459 
L 433.813438 240.329496 
L 438.382801 240.196805 
L 440.667483 240.329496 
L 442.952165 240.130459 
L 447.521528 240.064114 
L 449.80621 193.622292 
L 452.090892 40.364278 
L 454.375574 89.061846 
L 456.660256 105.051102 
L 458.944938 86.275337 
L 461.229619 133.181577 
L 463.514301 131.721977 
L 465.798983 122.367267 
L 468.083665 135.437323 
L 470.368347 139.617087 
L 472.653028 147.843924 
L 474.93771 148.839106 
L 477.222392 152.687143 
L 479.507074 148.772761 
L 481.791756 145.389142 
L 484.076437 143.863197 
L 486.361119 146.848742 
L 488.645801 142.071869 
L 490.930483 143.266087 
L 493.215165 198.332819 
L 495.499847 240.130459 
L 497.784528 240.329496 
L 500.06921 240.130459 
L 502.353892 240.26315 
L 504.638574 239.865078 
L 506.923256 240.528532 
L 509.207938 240.528532 
L 511.492619 240.064114 
L 513.777301 240.064114 
L 516.061983 240.196805 
L 518.346665 240.064114 
L 520.631347 240.329496 
L 522.916028 240.064114 
L 525.20071 240.462187 
L 527.485392 240.196805 
L 529.770074 240.395841 
L 532.054756 239.931423 
L 534.339438 231.240168 
L 536.624119 116.595212 
L 536.624119 116.595212 
" clip-path="url(#p6151414d2d)" style="fill: none; stroke: #1f77b4; stroke-width: 1.1; stroke-linecap: square"/>
   </g>
   <g id="line2d_15">
    <path d="M 79.687756 73.537009 
L 81.972438 57.746789 
L 84.257119 85.081119 
L 86.541801 106.046284 
L 88.826483 110.49143 
L 91.111165 122.168231 
L 93.395847 140.74496 
L 95.680528 138.091141 
L 100.249892 143.531469 
L 102.534574 145.919906 
L 104.819256 140.811305 
L 107.103938 149.303524 
L 109.388619 240.86026 
L 111.673301 240.528532 
L 113.957983 240.86026 
L 118.527347 240.395841 
L 120.812028 240.528532 
L 123.09671 240.329496 
L 125.381392 240.793914 
L 127.666074 240.395841 
L 129.950756 240.395841 
L 134.520119 240.727569 
L 136.804801 240.594878 
L 139.089483 240.329496 
L 141.374165 240.661223 
L 143.658847 240.395841 
L 145.943528 240.661223 
L 148.22821 238.07375 
L 150.512892 117.988467 
L 152.797574 74.3995 
L 155.082256 72.077408 
L 157.366938 106.378011 
L 159.651619 106.378011 
L 161.936301 129.466232 
L 164.220983 138.223832 
L 166.505665 136.830578 
L 168.790347 143.465124 
L 171.075028 142.20456 
L 173.35971 142.403596 
L 175.644392 147.246815 
L 177.929074 142.071869 
L 180.213756 143.531469 
L 182.498438 146.384324 
L 184.783119 139.816123 
L 187.067801 143.531469 
L 189.352483 161.312053 
L 191.637165 157.862089 
L 193.921847 212.79613 
L 196.206528 240.462187 
L 198.49121 240.661223 
L 200.775892 240.26315 
L 203.060574 240.926605 
L 205.345256 240.196805 
L 209.914619 240.793914 
L 212.199301 240.329496 
L 214.483983 240.86026 
L 216.768665 240.462187 
L 221.338028 240.462187 
L 225.907392 240.793914 
L 228.192074 240.727569 
L 230.476756 240.329496 
L 232.761437 240.329496 
L 235.046119 192.428073 
L 237.330801 103.790538 
L 239.615483 52.638189 
L 244.184847 120.509594 
L 246.469528 100.672302 
L 248.75421 137.494032 
L 251.038892 139.418051 
L 253.323574 137.892105 
L 255.608256 143.597815 
L 257.892938 144.128578 
L 260.177619 143.332433 
L 262.462301 144.39396 
L 264.746983 148.706415 
L 267.031665 139.882469 
L 269.316347 144.39396 
L 271.601028 147.445851 
L 273.88571 162.439925 
L 276.170392 163.302416 
L 278.455074 160.648598 
L 280.739756 240.528532 
L 283.024438 240.462187 
L 285.309119 240.86026 
L 287.593801 240.395841 
L 289.878483 240.26315 
L 292.163165 240.926605 
L 294.447847 240.462187 
L 296.732528 240.793914 
L 299.01721 240.395841 
L 303.586574 240.528532 
L 305.871256 240.793914 
L 308.155937 240.661223 
L 310.440619 240.196805 
L 312.725301 240.661223 
L 315.009983 240.661223 
L 317.294665 240.395841 
L 319.579347 240.395841 
L 321.864028 152.090034 
L 324.14871 52.90357 
L 326.433392 77.186009 
L 328.718074 90.786828 
L 331.002756 109.429903 
L 333.287438 123.097067 
L 335.572119 135.370978 
L 337.856801 141.541105 
L 340.141483 144.39396 
L 342.426165 142.005524 
L 344.710847 142.270905 
L 346.995528 147.18047 
L 349.28021 141.939178 
L 351.564892 144.062233 
L 353.849574 146.517015 
L 356.134256 142.005524 
L 358.418938 160.515907 
L 360.703619 158.989961 
L 362.988301 148.706415 
L 365.272983 205.63082 
L 367.557665 240.462187 
L 369.842347 240.793914 
L 372.127028 240.528532 
L 374.41171 240.594878 
L 376.696392 240.528532 
L 378.981074 240.26315 
L 381.265756 240.727569 
L 385.835119 240.594878 
L 388.119801 240.395841 
L 390.404483 240.528532 
L 392.689165 240.395841 
L 394.973847 240.727569 
L 397.258528 240.395841 
L 399.54321 240.99295 
L 401.827892 240.329496 
L 404.112574 240.26315 
L 406.397256 191.565582 
L 408.681938 109.429903 
L 410.966619 50.316097 
L 413.251301 88.929155 
L 415.535983 120.774976 
L 417.820665 103.591502 
L 420.105347 127.608559 
L 422.390028 141.076687 
L 424.67471 137.09596 
L 426.959392 142.668978 
L 429.244074 146.251633 
L 431.528756 142.93436 
L 433.813438 141.408414 
L 436.098119 148.441033 
L 438.382801 140.545924 
L 440.667483 144.39396 
L 442.952165 163.236071 
L 445.236847 163.10338 
L 447.521528 153.151561 
L 449.80621 152.355415 
L 452.090892 240.528532 
L 454.375574 240.462187 
L 456.660256 240.793914 
L 458.944938 240.395841 
L 461.229619 240.395841 
L 463.514301 241.059296 
L 465.798983 240.462187 
L 470.368347 240.395841 
L 472.653028 240.661223 
L 474.93771 240.594878 
L 479.507074 240.661223 
L 481.791756 240.26315 
L 486.361119 240.661223 
L 488.645801 240.594878 
L 490.930483 239.865078 
L 493.215165 180.485891 
L 495.499847 33.530696 
L 497.784528 80.436936 
L 500.06921 81.763846 
L 502.353892 120.177867 
L 504.638574 112.017376 
L 506.923256 138.356523 
L 509.207938 141.076687 
L 511.492619 142.868015 
L 513.777301 141.209378 
L 516.061983 143.929542 
L 518.346665 147.711233 
L 520.631347 138.356523 
L 522.916028 145.322797 
L 525.20071 145.521833 
L 529.770074 162.174544 
L 532.054756 152.156379 
L 534.339438 146.384324 
L 536.624119 204.303911 
L 536.624119 204.303911 
" clip-path="url(#p6151414d2d)" style="fill: none; stroke: #ff7f0e; stroke-width: 1.1; stroke-linecap: square"/>
   </g>
   <g id="patch_3">
    <path d="M 56.840938 253.037969 
L 56.840938 23.077969 
" style="fill: none; stroke: #000000; stroke-width: 0.8; stroke-linejoin: miter; stroke-linecap: square"/>
   </g>
   <g id="patch_4">
    <path d="M 559.470937 253.037969 
L 559.470937 23.077969 
" style="fill: none; stroke: #000000; stroke-width: 0.8; stroke-linejoin: miter; stroke-linecap: square"/>
   </g>
   <g id="patch_5">
    <path d="M 56.840938 253.037969 
L 559.470937 253.037969 
" style="fill: none; stroke: #000000; stroke-width: 0.8; stroke-linejoin: miter; stroke-linecap: square"/>
   </g>
   <g id="patch_6">
    <path d="M 56.840938 23.077969 
L 559.470937 23.077969 
" style="fill: none; stroke: #000000; stroke-width: 0.8; stroke-linejoin: miter; stroke-linecap: square"/>
   </g>
   <g id="text_16">
    <!-- M1_L5B_PT two-population output -->
    <g transform="translate(197.338047 17.077969) scale(0.13 -0.13)">
     <defs>
      <path id="DejaVuSans-4d" d="M 628 4666 
L 1569 4666 
L 2759 1491 
L 3956 4666 
L 4897 4666 
L 4897 0 
L 4281 0 
L 4281 4097 
L 3078 897 
L 2444 897 
L 1241 4097 
L 1241 0 
L 628 0 
L 628 4666 
z
" transform="scale(0.015625)"/>
      <path id="DejaVuSans-5f" d="M 3263 -1063 
L 3263 -1509 
L -63 -1509 
L -63 -1063 
L 3263 -1063 
z
" transform="scale(0.015625)"/>
      <path id="DejaVuSans-4c" d="M 628 4666 
L 1259 4666 
L 1259 531 
L 3531 531 
L 3531 0 
L 628 0 
L 628 4666 
z
" transform="scale(0.015625)"/>
      <path id="DejaVuSans-42" d="M 1259 2228 
L 1259 519 
L 2272 519 
Q 2781 519 3026 730 
Q 3272 941 3272 1375 
Q 3272 1813 3026 2020 
Q 2781 2228 2272 2228 
L 1259 2228 
z
M 1259 4147 
L 1259 2741 
L 2194 2741 
Q 2656 2741 2882 2914 
Q 3109 3088 3109 3444 
Q 3109 3797 2882 3972 
Q 2656 4147 2194 4147 
L 1259 4147 
z
M 628 4666 
L 2241 4666 
Q 2963 4666 3353 4366 
Q 3744 4066 3744 3513 
Q 3744 3084 3544 2831 
Q 3344 2578 2956 2516 
Q 3422 2416 3680 2098 
Q 3938 1781 3938 1306 
Q 3938 681 3513 340 
Q 3088 0 2303 0 
L 628 0 
L 628 4666 
z
" transform="scale(0.015625)"/>
      <path id="DejaVuSans-50" d="M 1259 4147 
L 1259 2394 
L 2053 2394 
Q 2494 2394 2734 2622 
Q 2975 2850 2975 3272 
Q 2975 3691 2734 3919 
Q 2494 4147 2053 4147 
L 1259 4147 
z
M 628 4666 
L 2053 4666 
Q 2838 4666 3239 4311 
Q 3641 3956 3641 3272 
Q 3641 2581 3239 2228 
Q 2838 1875 2053 1875 
L 1259 1875 
L 1259 0 
L 628 0 
L 628 4666 
z
" transform="scale(0.015625)"/>
      <path id="DejaVuSans-54" d="M -19 4666 
L 3928 4666 
L 3928 4134 
L 2272 4134 
L 2272 0 
L 1638 0 
L 1638 4134 
L -19 4134 
L -19 4666 
z
" transform="scale(0.015625)"/>
      <path id="DejaVuSans-2d" d="M 313 2009 
L 1997 2009 
L 1997 1497 
L 313 1497 
L 313 2009 
z
" transform="scale(0.015625)"/>
     </defs>
     <use xlink:href="#DejaVuSans-4d"/>
     <use xlink:href="#DejaVuSans-31" transform="translate(86.279297 0)"/>
     <use xlink:href="#DejaVuSans-5f" transform="translate(149.902344 0)"/>
     <use xlink:href="#DejaVuSans-4c" transform="translate(199.902344 0)"/>
     <use xlink:href="#DejaVuSans-35" transform="translate(255.615234 0)"/>
     <use xlink:href="#DejaVuSans-42" transform="translate(319.238281 0)"/>
     <use xlink:href="#DejaVuSans-5f" transform="translate(387.841797 0)"/>
     <use xlink:href="#DejaVuSans-50" transform="translate(437.841797 0)"/>
     <use xlink:href="#DejaVuSans-54" transform="translate(498.144531 0)"/>
     <use xlink:href="#DejaVuSans-20" transform="translate(559.228516 0)"/>
     <use xlink:href="#DejaVuSans-74" transform="translate(591.015625 0)"/>
     <use xlink:href="#DejaVuSans-77" transform="translate(630.224609 0)"/>
     <use xlink:href="#DejaVuSans-6f" transform="translate(712.011719 0)"/>
     <use xlink:href="#DejaVuSans-2d" transform="translate(775.068359 0)"/>
     <use xlink:href="#DejaVuSans-70" transform="translate(811.152344 0)"/>
     <use xlink:href="#DejaVuSans-6f" transform="translate(874.628906 0)"/>
     <use xlink:href="#DejaVuSans-70" transform="translate(935.810547 0)"/>
     <use xlink:href="#DejaVuSans-75" transform="translate(999.287109 0)"/>
     <use xlink:href="#DejaVuSans-6c" transform="translate(1062.666016 0)"/>
     <use xlink:href="#DejaVuSans-61" transform="translate(1090.449219 0)"/>
     <use xlink:href="#DejaVuSans-74" transform="translate(1151.728516 0)"/>
     <use xlink:href="#DejaVuSans-69" transform="translate(1190.9375 0)"/>
     <use xlink:href="#DejaVuSans-6f" transform="translate(1218.720703 0)"/>
     <use xlink:href="#DejaVuSans-6e" transform="translate(1279.902344 0)"/>
     <use xlink:href="#DejaVuSans-20" transform="translate(1343.28125 0)"/>
     <use xlink:href="#DejaVuSans-6f" transform="translate(1375.068359 0)"/>
     <use xlink:href="#DejaVuSans-75" transform="translate(1436.25 0)"/>
     <use xlink:href="#DejaVuSans-74" transform="translate(1499.628906 0)"/>
     <use xlink:href="#DejaVuSans-70" transform="translate(1538.837891 0)"/>
     <use xlink:href="#DejaVuSans-75" transform="translate(1602.314453 0)"/>
     <use xlink:href="#DejaVuSans-74" transform="translate(1665.693359 0)"/>
    </g>
   </g>
   <g id="legend_1">
    <g id="line2d_16">
     <path d="M 64.940938 34.866562 
L 73.940938 34.866562 
L 82.940938 34.866562 
" style="fill: none; stroke: #1f77b4; stroke-width: 1.1; stroke-linecap: square"/>
    </g>
    <g id="text_17">
     <!-- M1 group A -->
     <g transform="translate(90.140938 38.016562) scale(0.09 -0.09)">
      <defs>
       <path id="DejaVuSans-67" d="M 2906 1791 
Q 2906 2416 2648 2759 
Q 2391 3103 1925 3103 
Q 1463 3103 1205 2759 
Q 947 2416 947 1791 
Q 947 1169 1205 825 
Q 1463 481 1925 481 
Q 2391 481 2648 825 
Q 2906 1169 2906 1791 
z
M 3481 434 
Q 3481 -459 3084 -895 
Q 2688 -1331 1869 -1331 
Q 1566 -1331 1297 -1286 
Q 1028 -1241 775 -1147 
L 775 -588 
Q 1028 -725 1275 -790 
Q 1522 -856 1778 -856 
Q 2344 -856 2625 -561 
Q 2906 -266 2906 331 
L 2906 616 
Q 2728 306 2450 153 
Q 2172 0 1784 0 
Q 1141 0 747 490 
Q 353 981 353 1791 
Q 353 2603 747 3093 
Q 1141 3584 1784 3584 
Q 2172 3584 2450 3431 
Q 2728 3278 2906 2969 
L 2906 3500 
L 3481 3500 
L 3481 434 
z
" transform="scale(0.015625)"/>
       <path id="DejaVuSans-41" d="M 2188 4044 
L 1331 1722 
L 3047 1722 
L 2188 4044 
z
M 1831 4666 
L 2547 4666 
L 4325 0 
L 3669 0 
L 3244 1197 
L 1141 1197 
L 716 0 
L 50 0 
L 1831 4666 
z
" transform="scale(0.015625)"/>
      </defs>
      <use xlink:href="#DejaVuSans-4d"/>
      <use xlink:href="#DejaVuSans-31" transform="translate(86.279297 0)"/>
      <use xlink:href="#DejaVuSans-20" transform="translate(149.902344 0)"/>
      <use xlink:href="#DejaVuSans-67" transform="translate(181.689453 0)"/>
      <use xlink:href="#DejaVuSans-72" transform="translate(245.166016 0)"/>
      <use xlink:href="#DejaVuSans-6f" transform="translate(284.029297 0)"/>
      <use xlink:href="#DejaVuSans-75" transform="translate(345.210938 0)"/>
      <use xlink:href="#DejaVuSans-70" transform="translate(408.589844 0)"/>
      <use xlink:href="#DejaVuSans-20" transform="translate(472.066406 0)"/>
      <use xlink:href="#DejaVuSans-41" transform="translate(503.853516 0)"/>
     </g>
    </g>
    <g id="line2d_17">
     <path d="M 64.940938 48.076875 
L 73.940938 48.076875 
L 82.940938 48.076875 
" style="fill: none; stroke: #ff7f0e; stroke-width: 1.1; stroke-linecap: square"/>
    </g>
    <g id="text_18">
     <!-- M1 group B -->
     <g transform="translate(90.140938 51.226875) scale(0.09 -0.09)">
      <use xlink:href="#DejaVuSans-4d"/>
      <use xlink:href="#DejaVuSans-31" transform="translate(86.279297 0)"/>
      <use xlink:href="#DejaVuSans-20" transform="translate(149.902344 0)"/>
      <use xlink:href="#DejaVuSans-67" transform="translate(181.689453 0)"/>
      <use xlink:href="#DejaVuSans-72" transform="translate(245.166016 0)"/>
      <use xlink:href="#DejaVuSans-6f" transform="translate(284.029297 0)"/>
      <use xlink:href="#DejaVuSans-75" transform="translate(345.210938 0)"/>
      <use xlink:href="#DejaVuSans-70" transform="translate(408.589844 0)"/>
      <use xlink:href="#DejaVuSans-20" transform="translate(472.066406 0)"/>
      <use xlink:href="#DejaVuSans-42" transform="translate(503.853516 0)"/>
     </g>
    </g>
   </g>
  </g>
 </g>
 <defs>
  <clipPath id="p6151414d2d">
   <rect x="56.840938" y="23.077969" width="502.63" height="229.96"/>
  </clipPath>
 </defs>
</svg>
